<svg width="500" height="178" viewBox="0 0 500 178" fill="none" xmlns="http://www.w3.org/2000/svg" role="img" aria-labelledby="title desc">
  <title id="title">Aspirin0000 top languages</title>
  <desc id="desc">An automatically generated language distribution card for public non-fork repositories owned by Aspirin0000.</desc>
  <rect x="0.5" y="0.5" width="499" height="177" rx="8" fill="#FFFFFF" stroke="#D0D7DE"/>
  <text x="20" y="33" fill="#24292F" font-family="Inter, Segoe UI, Helvetica, Arial, sans-serif" font-size="18" font-weight="700">Top Languages</text>
  <text x="20" y="53" fill="#57606A" font-family="Inter, Segoe UI, Helvetica, Arial, sans-serif" font-size="12">Public non-fork repos - refreshed 2026-07-04</text>
  <g font-family="Inter, Segoe UI, Helvetica, Arial, sans-serif" font-size="12">
    <text x="20" y="86" fill="#24292F">Go</text>
    <rect x="115" y="77" width="250" height="9" rx="4.5" fill="#EAEEF2"/>
    <rect x="115" y="77" width="123" height="9" rx="4.5" fill="#00ADD8"/>
    <text x="382" y="86" fill="#57606A">49.4%</text>
    <text x="20" y="106" fill="#24292F">Makefile</text>
    <rect x="115" y="97" width="250" height="9" rx="4.5" fill="#EAEEF2"/>
    <rect x="115" y="97" width="41" height="9" rx="4.5" fill="#427819"/>
    <text x="382" y="106" fill="#57606A">16.3%</text>
    <text x="20" y="126" fill="#24292F">C++</text>
    <rect x="115" y="117" width="250" height="9" rx="4.5" fill="#EAEEF2"/>
    <rect x="115" y="117" width="35" height="9" rx="4.5" fill="#F34B7D"/>
    <text x="382" y="126" fill="#57606A">14.0%</text>
    <text x="20" y="146" fill="#24292F">CMake</text>
    <rect x="115" y="137" width="250" height="9" rx="4.5" fill="#EAEEF2"/>
    <rect x="115" y="137" width="28" height="9" rx="4.5" fill="#DA3434"/>
    <text x="382" y="146" fill="#57606A">11.2%</text>
    <text x="20" y="166" fill="#24292F">TypeScript</text>
    <rect x="115" y="157" width="250" height="9" rx="4.5" fill="#EAEEF2"/>
    <rect x="115" y="157" width="9" height="9" rx="4.5" fill="#3178C6"/>
    <text x="382" y="166" fill="#57606A">3.7%</text>
  </g>
</svg>
