<svg width="1000" height="240" viewBox="0 0 1000 240" fill="none" xmlns="http://www.w3.org/2000/svg" role="img" aria-labelledby="title desc">
  <title id="title">合乎周礼 / Zhouli Translator</title>
  <desc id="desc">Spotlight card for Zhouli Translator, an AI-era Chinese style translator.</desc>
  <defs>
    <linearGradient id="accent" x1="36" y1="28" x2="964" y2="28" gradientUnits="userSpaceOnUse">
      <stop stop-color="#0969DA"/>
      <stop offset="0.48" stop-color="#8250DF"/>
      <stop offset="1" stop-color="#BF3989"/>
    </linearGradient>
  </defs>
  <rect x="0.5" y="0.5" width="999" height="239" rx="14" fill="#FFFFFF" stroke="#D0D7DE"/>
  <path d="M36 28H964" stroke="url(#accent)" stroke-width="3" stroke-linecap="round"/>
  <text x="36" y="64" fill="#57606A" font-family="Inter, Segoe UI, Helvetica, Arial, sans-serif" font-size="14" font-weight="650">FEATURED WORK</text>
  <text x="36" y="103" fill="#24292F" font-family="Inter, Segoe UI, Helvetica, Arial, sans-serif" font-size="31" font-weight="760">合乎周礼 / Zhouli Translator</text>
  <text x="36" y="132" fill="#3F4B5B" font-family="Inter, Segoe UI, Helvetica, Arial, sans-serif" font-size="17">AI-era Chinese style translator · prompt craft · image export · Cloudflare deploy</text>
  <text x="36" y="151" fill="#57606A" font-family="Inter, Segoe UI, Helvetica, Arial, sans-serif" font-size="14" font-weight="650">TECH STACK</text>
  <g font-family="Inter, Segoe UI, Helvetica, Arial, sans-serif" fill="#24292F">
    <g transform="translate(36 166)">
      <g>
        <rect width="118" height="34" rx="17" fill="#FFFFFF" stroke="#D0D7DE"/>
        <rect width="28" height="28" x="3" y="3" rx="14" fill="#111111"/>
        <text x="17" y="22" fill="#FFFFFF" font-size="12" text-anchor="middle" font-weight="700">L</text>
        <text x="39" y="21" fill="#57606A" font-size="12" font-weight="600">License</text>
        <text x="101" y="22" fill="#111111" font-size="12" font-weight="700" text-anchor="end">MIT</text>
      </g>
      <g transform="translate(132 0)">
        <rect width="224" height="34" rx="17" fill="#FFFFFF" stroke="#D0D7DE"/>
        <rect width="28" height="28" x="3" y="3" rx="14" fill="#8B1E1E"/>
        <text x="17" y="22" fill="#FFFFFF" font-size="11" text-anchor="middle" font-weight="700">O</text>
        <text x="39" y="21" fill="#57606A" font-size="12" font-weight="600">Official</text>
        <text x="209" y="22" fill="#8B1E1E" font-size="12" font-weight="700" text-anchor="end">hehuzhouli.com</text>
      </g>
      <g transform="translate(366 0)">
        <rect width="170" height="34" rx="17" fill="#FFFFFF" stroke="#D0D7DE"/>
        <rect width="28" height="28" x="3" y="3" rx="14" fill="#181717"/>
        <text x="17" y="22" fill="#FFFFFF" font-size="11" text-anchor="middle" font-weight="700">GH</text>
        <text x="39" y="21" fill="#57606A" font-size="12" font-weight="600">GitHub</text>
        <text x="154" y="22" fill="#181717" font-size="12" font-weight="700" text-anchor="end">official repo</text>
      </g>
      <g transform="translate(550 0)">
        <rect width="130" height="34" rx="17" fill="#FFFFFF" stroke="#D0D7DE"/>
        <rect width="28" height="28" x="3" y="3" rx="14" fill="#000000"/>
        <text x="17" y="22" fill="#FFFFFF" font-size="10" text-anchor="middle" font-weight="700">N</text>
        <text x="39" y="21" fill="#57606A" font-size="12" font-weight="600">Next.js</text>
        <text x="112" y="22" fill="#111111" font-size="12" font-weight="700" text-anchor="end">16</text>
      </g>
    </g>
    <g transform="translate(36 211)">
      <g>
        <rect width="128" height="34" rx="17" fill="#FFFFFF" stroke="#D0D7DE"/>
        <rect width="28" height="28" x="3" y="3" rx="14" fill="#149ECA"/>
        <text x="17" y="22" fill="#FFFFFF" font-size="10" text-anchor="middle" font-weight="700">R</text>
        <text x="39" y="21" fill="#57606A" font-size="12" font-weight="600">React</text>
        <text x="114" y="22" fill="#149ECA" font-size="12" font-weight="700" text-anchor="end">19</text>
      </g>
      <g transform="translate(144 0)">
        <rect width="144" height="34" rx="17" fill="#FFFFFF" stroke="#D0D7DE"/>
        <rect width="28" height="28" x="3" y="3" rx="14" fill="#3178C6"/>
        <text x="17" y="22" fill="#FFFFFF" font-size="10" text-anchor="middle" font-weight="700">TS</text>
        <text x="39" y="21" fill="#57606A" font-size="12" font-weight="600">TypeScript</text>
        <text x="130" y="22" fill="#3178C6" font-size="12" font-weight="700" text-anchor="end">5</text>
      </g>
      <g transform="translate(298 0)">
        <rect width="192" height="34" rx="17" fill="#FFFFFF" stroke="#D0D7DE"/>
        <rect width="28" height="28" x="3" y="3" rx="14" fill="#F38020"/>
        <text x="17" y="22" fill="#FFFFFF" font-size="10" text-anchor="middle" font-weight="700">CF</text>
        <text x="39" y="21" fill="#57606A" font-size="12" font-weight="600">Cloudflare</text>
        <text x="176" y="22" fill="#F38020" font-size="12" font-weight="700" text-anchor="end">Workers</text>
      </g>
    </g>
  </g>
</svg>
